<mxfile host="app.diagrams.net" modified="2020-08-17T19:29:30.416Z" agent="5.0 (Windows NT 10.0; Win64; x64) AppleWebKit/537.36 (KHTML, like Gecko) Chrome/84.0.4147.125 Safari/537.36" etag="UJIN0uKblDEYRJvGyb8Z" version="13.6.2" type="github">
  <diagram id="jH53t1RvlJAJbvrkoteI" name="Page-1">
    <mxGraphModel dx="3330" dy="2274" grid="1" gridSize="10" guides="1" tooltips="1" connect="1" arrows="1" fold="1" page="1" pageScale="1" pageWidth="850" pageHeight="1100" math="0" shadow="0">
      <root>
        <mxCell id="0" />
        <mxCell id="1" parent="0" />
        <mxCell id="NFJwzVAg7rKaGNqUuIfG-4" value="" style="rounded=0;whiteSpace=wrap;html=1;" vertex="1" parent="1">
          <mxGeometry x="-60" y="-50" width="960" height="1190" as="geometry" />
        </mxCell>
        <mxCell id="NFJwzVAg7rKaGNqUuIfG-14" value="" style="rounded=0;whiteSpace=wrap;html=1;" vertex="1" parent="1">
          <mxGeometry x="50" y="940" width="750" height="60" as="geometry" />
        </mxCell>
        <mxCell id="NFJwzVAg7rKaGNqUuIfG-5" value="&lt;font style=&quot;font-size: 24px&quot;&gt;&lt;u&gt;Robot (r)&lt;/u&gt;&lt;br&gt;moving&lt;br&gt;&lt;/font&gt;" style="html=1;" vertex="1" parent="1">
          <mxGeometry x="220" y="80" width="160" height="70" as="geometry" />
        </mxCell>
        <mxCell id="NFJwzVAg7rKaGNqUuIfG-17" style="edgeStyle=orthogonalEdgeStyle;rounded=0;orthogonalLoop=1;jettySize=auto;html=1;exitX=1;exitY=0.75;exitDx=0;exitDy=0;endArrow=none;endFill=0;" edge="1" parent="1" source="NFJwzVAg7rKaGNqUuIfG-6" target="NFJwzVAg7rKaGNqUuIfG-9">
          <mxGeometry relative="1" as="geometry" />
        </mxCell>
        <mxCell id="NFJwzVAg7rKaGNqUuIfG-18" style="edgeStyle=orthogonalEdgeStyle;rounded=0;orthogonalLoop=1;jettySize=auto;html=1;exitX=0;exitY=0.75;exitDx=0;exitDy=0;entryX=0.5;entryY=0;entryDx=0;entryDy=0;endArrow=none;endFill=0;" edge="1" parent="1" source="NFJwzVAg7rKaGNqUuIfG-6" target="NFJwzVAg7rKaGNqUuIfG-8">
          <mxGeometry relative="1" as="geometry" />
        </mxCell>
        <mxCell id="NFJwzVAg7rKaGNqUuIfG-6" value="&lt;font style=&quot;font-size: 24px&quot;&gt;World (w)&lt;br&gt;&lt;/font&gt;" style="html=1;" vertex="1" parent="1">
          <mxGeometry x="220" y="370" width="160" height="70" as="geometry" />
        </mxCell>
        <mxCell id="NFJwzVAg7rKaGNqUuIfG-7" value="&lt;font style=&quot;font-size: 24px&quot;&gt;&amp;lt;&amp;lt;multiple&amp;gt;&amp;gt;&lt;br&gt;Element&lt;br&gt;&lt;/font&gt;" style="html=1;" vertex="1" parent="1">
          <mxGeometry x="560" y="365" width="200" height="80" as="geometry" />
        </mxCell>
        <mxCell id="NFJwzVAg7rKaGNqUuIfG-8" value="&lt;font style=&quot;font-size: 24px&quot;&gt;Area (a1)&lt;br&gt;&lt;/font&gt;" style="html=1;" vertex="1" parent="1">
          <mxGeometry x="120" y="660" width="160" height="70" as="geometry" />
        </mxCell>
        <mxCell id="NFJwzVAg7rKaGNqUuIfG-22" style="edgeStyle=orthogonalEdgeStyle;rounded=0;orthogonalLoop=1;jettySize=auto;html=1;exitX=0.5;exitY=1;exitDx=0;exitDy=0;endArrow=none;endFill=0;" edge="1" parent="1" source="NFJwzVAg7rKaGNqUuIfG-9">
          <mxGeometry relative="1" as="geometry">
            <mxPoint x="340.0000000000002" y="840" as="targetPoint" />
          </mxGeometry>
        </mxCell>
        <mxCell id="NFJwzVAg7rKaGNqUuIfG-9" value="&lt;font style=&quot;font-size: 24px&quot;&gt;Area (a2)&lt;br&gt;&lt;/font&gt;" style="html=1;" vertex="1" parent="1">
          <mxGeometry x="340" y="660" width="160" height="70" as="geometry" />
        </mxCell>
        <mxCell id="NFJwzVAg7rKaGNqUuIfG-19" style="edgeStyle=orthogonalEdgeStyle;rounded=0;orthogonalLoop=1;jettySize=auto;html=1;exitX=0.5;exitY=0;exitDx=0;exitDy=0;entryX=0.5;entryY=0;entryDx=0;entryDy=0;endArrow=none;endFill=0;" edge="1" parent="1" source="NFJwzVAg7rKaGNqUuIfG-10" target="NFJwzVAg7rKaGNqUuIfG-11">
          <mxGeometry relative="1" as="geometry">
            <Array as="points">
              <mxPoint x="160" y="830" />
              <mxPoint x="340" y="830" />
            </Array>
          </mxGeometry>
        </mxCell>
        <mxCell id="NFJwzVAg7rKaGNqUuIfG-10" value="&lt;font style=&quot;font-size: 24px&quot;&gt;Wall (w1)&lt;br&gt;&lt;/font&gt;" style="html=1;" vertex="1" parent="1">
          <mxGeometry x="80" y="910" width="160" height="70" as="geometry" />
        </mxCell>
        <mxCell id="NFJwzVAg7rKaGNqUuIfG-11" value="&lt;font style=&quot;font-size: 24px&quot;&gt;Wall (w1)&lt;br&gt;&lt;/font&gt;" style="html=1;" vertex="1" parent="1">
          <mxGeometry x="260" y="910" width="160" height="70" as="geometry" />
        </mxCell>
        <mxCell id="NFJwzVAg7rKaGNqUuIfG-12" value="&lt;font style=&quot;font-size: 24px&quot;&gt;Wall (w1)&lt;br&gt;&lt;/font&gt;" style="html=1;" vertex="1" parent="1">
          <mxGeometry x="440" y="910" width="160" height="70" as="geometry" />
        </mxCell>
        <mxCell id="NFJwzVAg7rKaGNqUuIfG-13" value="&lt;font style=&quot;font-size: 24px&quot;&gt;Wall (w1)&lt;br&gt;&lt;/font&gt;" style="html=1;" vertex="1" parent="1">
          <mxGeometry x="620" y="910" width="160" height="70" as="geometry" />
        </mxCell>
        <mxCell id="NFJwzVAg7rKaGNqUuIfG-15" value="" style="endArrow=none;html=1;exitX=1;exitY=0.5;exitDx=0;exitDy=0;entryX=0;entryY=0.5;entryDx=0;entryDy=0;" edge="1" parent="1" source="NFJwzVAg7rKaGNqUuIfG-6" target="NFJwzVAg7rKaGNqUuIfG-7">
          <mxGeometry width="50" height="50" relative="1" as="geometry">
            <mxPoint x="190" y="580" as="sourcePoint" />
            <mxPoint x="240" y="530" as="targetPoint" />
          </mxGeometry>
        </mxCell>
        <mxCell id="NFJwzVAg7rKaGNqUuIfG-16" value="" style="endArrow=none;html=1;exitX=1;exitY=0.5;exitDx=0;exitDy=0;entryX=0.5;entryY=1;entryDx=0;entryDy=0;" edge="1" parent="1" target="NFJwzVAg7rKaGNqUuIfG-5">
          <mxGeometry width="50" height="50" relative="1" as="geometry">
            <mxPoint x="299.9999999999998" y="370" as="sourcePoint" />
            <mxPoint x="480.0000000000002" y="370" as="targetPoint" />
          </mxGeometry>
        </mxCell>
        <mxCell id="NFJwzVAg7rKaGNqUuIfG-20" style="edgeStyle=orthogonalEdgeStyle;rounded=0;orthogonalLoop=1;jettySize=auto;html=1;exitX=0.5;exitY=0;exitDx=0;exitDy=0;entryX=0.5;entryY=0;entryDx=0;entryDy=0;endArrow=none;endFill=0;" edge="1" parent="1">
          <mxGeometry relative="1" as="geometry">
            <mxPoint x="340" y="910" as="sourcePoint" />
            <mxPoint x="520.0000000000002" y="910" as="targetPoint" />
            <Array as="points">
              <mxPoint x="340" y="830" />
              <mxPoint x="520" y="830" />
            </Array>
          </mxGeometry>
        </mxCell>
        <mxCell id="NFJwzVAg7rKaGNqUuIfG-21" style="edgeStyle=orthogonalEdgeStyle;rounded=0;orthogonalLoop=1;jettySize=auto;html=1;exitX=0.5;exitY=0;exitDx=0;exitDy=0;entryX=0.5;entryY=0;entryDx=0;entryDy=0;endArrow=none;endFill=0;" edge="1" parent="1">
          <mxGeometry relative="1" as="geometry">
            <mxPoint x="520" y="910" as="sourcePoint" />
            <mxPoint x="700.0000000000002" y="910" as="targetPoint" />
            <Array as="points">
              <mxPoint x="520" y="830" />
              <mxPoint x="700" y="830" />
            </Array>
          </mxGeometry>
        </mxCell>
        <mxCell id="NFJwzVAg7rKaGNqUuIfG-23" value="&lt;span style=&quot;font-size: 24px&quot;&gt;&amp;lt;&amp;lt;global&amp;gt;&amp;gt;&lt;/span&gt;" style="text;html=1;strokeColor=none;fillColor=none;align=center;verticalAlign=middle;whiteSpace=wrap;rounded=0;" vertex="1" parent="1">
          <mxGeometry x="460" y="370" width="40" height="20" as="geometry" />
        </mxCell>
        <mxCell id="NFJwzVAg7rKaGNqUuIfG-24" value="&lt;font style=&quot;font-size: 24px&quot;&gt;&lt;b&gt;CT/2015/054&lt;/b&gt;&lt;/font&gt;" style="text;html=1;strokeColor=none;fillColor=none;align=center;verticalAlign=middle;whiteSpace=wrap;rounded=0;" vertex="1" parent="1">
          <mxGeometry x="20" y="-20" width="40" height="20" as="geometry" />
        </mxCell>
      </root>
    </mxGraphModel>
  </diagram>
</mxfile>
